<?xml version="1.0" encoding="UTF-8"?>
<svg id="Layer_2" data-name="Layer 2" xmlns="http://www.w3.org/2000/svg" viewBox="0 0 1238.27 495.04">
  <defs>
    <style>
      .cls-1 {
        fill: #f1a666;
      }

      .cls-2 {
        fill: #5d3519;
      }

      .cls-3 {
        fill: #e5e5e5;
      }

      .cls-4 {
        fill: #3b1c09;
      }

      .cls-5 {
        fill: #f1f1f1;
      }

      .cls-6 {
        fill: #3b1d09;
      }

      .cls-7 {
        fill: #3b1c08;
      }
    </style>
  </defs>
  <g id="Layer_1-2" data-name="Layer 1">
    <g>
      <g>
        <path d="M183.76,265.21c0-6.23.8-13.05,2.41-21.89l-12.45-1.61c5.62-37.15,35.75-60.45,78.12-61.45l-1.21,22.09h3.82c7.03,0,14.66-.4,22.09-1.81,2.81,2.41,5.42,9.64,5.42,18.27,0,11.85-6.43,25.91-21.69,25.91h-9.64c-.4,2.81-.6,5.22-.6,7.43,0,9.44,3.82,12.45,12.05,12.45,4.82,0,10.44-1.81,13.86-5.02,4.22,6.43,6.23,13.25,6.23,19.88,0,19.68-17.47,37.15-48.2,37.15s-50.21-16.07-50.21-51.41Z"/>
        <path d="M368.11,273.44c0-7.23.8-15.46,2.61-23.9-1-.6-2.21-1-3.21-1-5.22,0-8.64,4.62-8.64,20.48v46.59h-68.68l2.01-64.26c1.21-39.96-2.21-56.23-5.62-68.08,9.84-7.03,21.89-10.84,37.35-10.84,23.7,0,35.75,10.24,35.75,35.75,0,6.63-.8,14.46-3.62,23.5h4.02c5.82-19.08,21.29-31.53,43.18-31.53,23.9,0,36.55,15.66,34.14,41.17l-1.61,17.27c-.6,5.82,2.41,7.83,6.83,7.83,1.81,0,5.02-.6,7.23-2.01,1.81,5.02,2.61,9.84,2.61,14.46,0,21.89-18.28,39.56-45.19,39.56s-39.16-14.86-39.16-44.98Z"/>
        <path d="M456.88,262.2c0-45.38,38.76-62.25,70.89-62.25,36.15,0,57.03,16.67,57.03,46.99,0,4.22-.6,8.84-1.41,13.86l-59.64,2.01c3.01,7.63,10.04,11.45,22.89,11.45,9.04,0,18.07-1.41,30.12-8.43,3.21,1.21,6.43,8.03,6.43,16.27,0,16.07-11.65,37.96-56.63,37.96-47.8,0-69.69-24.7-69.69-57.84ZM521.74,250.75l15.46-2.21c1.81-7.63.2-18.07-6.02-18.07-4.82,0-9.44,7.63-9.44,19.48v.8Z"/>
        <path d="M630.59,294.13c1.61-5.42,4.82-9.24,8.43-13.05l.8-35.75c.8-33.94-2.61-50.21-6.03-62.05,9.84-7.03,21.89-10.84,37.35-10.84,23.7,0,35.75,10.24,35.75,33.74,0,8.63-1.21,14.86-3.41,24.3h4.02c6.23-22.89,18.68-30.32,34.54-30.32,22.49,0,39.36,20.48,39.36,58.24s-20.08,60.05-47.59,60.05c-15.46,0-26.71-6.02-33.14-15.26h-4.02l-3.41,12.45c-6.43,2.01-14.26,2.81-24.3,2.81-23.7,0-34.34-9.04-38.36-24.3ZM702.68,286.3c8.64-1,13.05-11.25,13.05-21.49s-3.82-16.27-10.64-16.27h-1.41l-1,37.75Z"/>
        <path d="M788.63,262.2c0-45.38,38.76-62.25,70.89-62.25,36.15,0,57.03,16.67,57.03,46.99,0,4.22-.6,8.84-1.41,13.86l-59.64,2.01c3.01,7.63,10.04,11.45,22.89,11.45,9.04,0,18.07-1.41,30.12-8.43,3.21,1.21,6.43,8.03,6.43,16.27,0,16.07-11.65,37.96-56.63,37.96-47.8,0-69.69-24.7-69.69-57.84ZM853.5,250.75l15.46-2.21c1.81-7.63.2-18.07-6.02-18.07-4.82,0-9.44,7.63-9.44,19.48v.8Z"/>
        <path d="M922.98,262.2c0-45.38,38.76-62.25,70.89-62.25,36.15,0,57.03,16.67,57.03,46.99,0,4.22-.6,8.84-1.41,13.86l-59.64,2.01c3.01,7.63,10.04,11.45,22.89,11.45,9.04,0,18.07-1.41,30.12-8.43,3.21,1.21,6.43,8.03,6.43,16.27,0,16.07-11.65,37.96-56.63,37.96-47.79,0-69.68-24.7-69.68-57.84ZM987.85,250.75l15.46-2.21c1.81-7.63.2-18.07-6.02-18.07-4.82,0-9.44,7.63-9.44,19.48v.8Z"/>
        <path d="M1057.33,245.53c10.84-5.82,19.88-19.28,18.68-33.74-10.04-5.62-14.26-19.08-14.26-28.32,0-18.68,12.25-27.51,26.11-27.51,19.68,0,29.32,16.47,29.32,39.76,0,31.73-18.27,54.42-45.18,54.42-5.62,0-10.64-1.21-14.66-4.62Z"/>
        <path d="M1117.97,286.7c0-8.23,2.61-14.66,7.23-19.08,12.85,12.05,34.54,17.07,43.98,17.07,3.21,0,6.02-.6,6.02-2.81,0-1.61-2.41-2.01-7.23-3.21l-18.48-5.02c-21.49-5.82-28.92-18.48-28.92-33.74,0-23.09,19.08-39.76,62.25-39.76,19.08,0,37.35,3.01,49,1.81,3.21,6.02,4.22,14.66,4.22,19.08,0,12.05-5.62,22.29-20.28,22.29-10.24,0-19.88-4.82-31.73-12.25-1.61,1.41-2.01,3.01-2.01,5.02,0,2.81,2.81,5.02,9.04,6.63l18.47,4.82c18.28,4.82,28.72,14.46,28.72,31.73,0,23.9-19.68,39.16-62.05,39.16-38.56,0-58.24-12.25-58.24-31.73Z"/>
        <path d="M253.44,456.28c0-5.62.6-11.25,2.61-16.67l-10.64,2.81.8,48.2h-68.08l2.01-64.26c1.21-39.96-2.21-56.23-5.62-68.08,9.84-7.03,21.89-10.84,37.35-10.84,34.14,0,40.97,18.68,33.34,76.71h5.62c12.25-10.24,13.66-26.11,8.43-41.57,8.44-5.02,17.67-7.43,30.53-7.43,18.68,0,33.94,8.43,33.94,24.7,0,12.65-8.23,22.49-23.3,27.71-1.61,8.63,4.02,12.25,10.64,12.25,5.82,0,12.45-2.81,15.66-6.63,4.02,7.23,6.02,15.86,6.02,23.7,0,19.88-12.25,36.55-40.57,36.55-22.29,0-38.76-13.05-38.76-37.15Z"/>
        <path d="M417.71,448.44c0-7.23.8-15.46,2.61-23.9-1-.6-2.21-1-3.21-1-5.22,0-8.64,4.62-8.64,20.48v46.59h-68.68l2.01-50.41c1-26.11-2.61-42.37-6.02-54.22,9.84-7.03,22.29-10.84,35.34-10.84,22.29,0,35.34,10.44,34.54,31.53h4.02c5.82-19.08,21.29-31.53,43.18-31.53,23.9,0,36.55,15.66,34.14,41.17l-1.61,17.27c-.6,5.82,2.41,7.83,6.83,7.83,1.81,0,5.02-.6,7.23-2.01,1.81,5.02,2.61,9.84,2.61,14.46,0,21.89-18.28,39.56-45.19,39.56s-39.16-14.86-39.16-44.98Z"/>
        <path d="M506.48,437.2c0-45.38,38.76-62.25,70.89-62.25,36.15,0,57.03,16.67,57.03,46.99,0,4.22-.6,8.84-1.41,13.86l-59.64,2.01c3.01,7.63,10.04,11.45,22.89,11.45,9.04,0,18.07-1.41,30.12-8.43,3.21,1.21,6.43,8.03,6.43,16.27,0,16.07-11.65,37.96-56.63,37.96-47.79,0-69.68-24.7-69.68-57.84ZM571.35,425.75l15.46-2.21c1.81-7.63.2-18.07-6.02-18.07-4.82,0-9.44,7.63-9.44,19.48v.8Z"/>
        <path d="M640.83,437.2c0-45.38,38.76-62.25,70.89-62.25,36.15,0,57.03,16.67,57.03,46.99,0,4.22-.6,8.84-1.41,13.86l-59.64,2.01c3.01,7.63,10.04,11.45,22.89,11.45,9.04,0,18.07-1.41,30.12-8.43,3.21,1.21,6.43,8.03,6.43,16.27,0,16.07-11.65,37.96-56.63,37.96-47.79,0-69.68-24.7-69.68-57.84ZM705.69,425.75l15.46-2.21c1.81-7.63.2-18.07-6.03-18.07-4.82,0-9.44,7.63-9.44,19.48v.8Z"/>
        <path d="M773.77,461.7c0-8.23,2.61-14.66,7.23-19.08,12.85,12.05,34.54,17.07,43.98,17.07,3.21,0,6.02-.6,6.02-2.81,0-1.61-2.41-2.01-7.23-3.21l-18.48-5.02c-21.49-5.82-28.92-18.48-28.92-33.74,0-23.09,19.08-39.76,62.25-39.76,19.08,0,37.35,3.01,49,1.81,3.21,6.02,4.22,14.66,4.22,19.08,0,12.05-5.62,22.29-20.28,22.29-10.24,0-19.88-4.82-31.73-12.25-1.61,1.41-2.01,3.01-2.01,5.02,0,2.81,2.81,5.02,9.04,6.63l18.48,4.82c18.27,4.82,28.72,14.46,28.72,31.73,0,23.9-19.68,39.16-62.05,39.16-38.56,0-58.24-12.25-58.24-31.73Z"/>
      </g>
      <g>
        <path class="cls-5" d="M46.58,14.15c28.7,4.02,58.49,27.87,68.05,55.41,1.59,4.58,3.39,10.45,2.06,15.1l.79,1.29c-.32,6.28-1.44,12.9-3.94,18.62-.46,1.05-1.99,3.73-3.16,3.33-1.11,3.55-5.54,6.23-8.74,8.06-1.14.65-2.3,1.24-3.5,1.77-.33-.42-.71-.58-1.15-.37l-.88,1.18c-5.62,2.15-11.63,2.57-17.58,2.72l-1.24-.75c-.92-.26-1.52-.06-1.78.58l-10.74-1.3-.48-.85C34.55,111.4-1.92,79.53.08,46.24,1.54,21.79,23.79,11.57,45.89,14.95c.31-.05.47-.56.68-.8Z"/>
        <path class="cls-1" d="M188.38,57.88c.7.96-.65,2.84-1.58,3.15-.73,2.3-.76,2.58-.09.85l.48-.07c.25-1.53,1.16-3.21,2.76-3.55,6.92,4.51,12.68,9.52,17.1,16.58,4.18,6.66,6.61,14.24,10.4,21.11,7.65,13.85,19.77,25.51,12.58,43.17-5.49,13.47-16.88,13.47-28.36,17.72-2.17.8-3.45.97-4.63,3.05-.78-.37-.91-.43-.4-.17-49.02,31.71-78.48-46.46-62.47-82.83,1.31-2.35,2.31-4.75,2.99-7.21,3.28-1.06,3.31-2.81,5.5-4.94,3.98-3.87,9.99-7.18,15.38-8.45l.47.59c-.34,1.72.03,1.26,1.11-1.38,9.88-1.94,19.57-2.46,28.76,2.36Z"/>
        <path class="cls-1" d="M77.3,120.51c-.29,1.38.28,2.96,1.69,4.73l2.98,4.64c14.07,17.15,21.39,37.66,28.21,58.2,3.39,8.53,8.42,17.44,17.5,20.74l.82,1.1c-21.25,18.06-49.59.79-62.95-18.39-11.62-16.67-17.6-39.83-9.83-59.31,2-5.02,5.12-9.21,8.57-13.29l13,1.58Z"/>
        <path class="cls-7" d="M137.17,69.69c.68.03,1.57-.36.99.79-4.58,9.12-7.06,14.35-7.68,25.01-1.71,29.33,17.48,82.57,55.63,68.63,3.5-1.28,6.54-3.36,9.86-4.71.75-.31,1.21-.75,1.07.48-.7,1.23-1.12,2.85-1.9,4.2-4.79,8.26-15.91,14.89-25.28,16.28-.2.23-.42.45-.66.62-2.24,1.59-13.89.37-17.11-.26-31.58-6.22-42.88-42.27-42.55-70.66l.84-2.18c.87-1.06,3.16-4.56,3.46-5.8,1.49-6.1,2.98-10.94,2.84-17.44,1.47-6.46,11.95-14.32,18.25-15.33.51-.08,1,.15,1.45.36.22-.07.58.07.79,0Z"/>
        <path class="cls-3" d="M136.39,69.69c-8.91,2.75-14.83,6.91-19.7,14.97-.69-31.97-38.42-66.16-69.14-69.34-1.17-.12-1.04.29-.97-1.17,1.35-1.5,2.43-3.71,3.93-5.33,13.38-14.43,35.38-8.88,50,.44,19.93,12.69,35.31,36.41,35.88,60.43Z"/>
        <path class="cls-7" d="M97,117.36l1.44-.14c1.05,18.31,7.38,36.87,18.02,51.98,9.16,13,25.08,26.49,41.88,21.47l1.28.35c-3.16,14-16.95,23.23-31.12,18.91-16.43-5.01-20.5-26.72-25.7-40.67-3.4-9.14-7.16-17.59-12.34-25.87-4.79-7.65-11.01-14.41-14.73-22.69.24-.39,1.12-.18,1.57-.19,7.36-.26,12.71-.35,19.7-3.15Z"/>
        <path class="cls-1" d="M169.87,180.38c-1.79,4.52-5.72,8.78-10.24,10.64-11.52,4.73-24.45-1.7-33.09-9.25-16.29-14.24-27.75-41.62-28.75-63.05-.04-.76.41-1.58-.79-1.36,4.68-1.87,10.17-5.53,13.39-9.45-.88,26.32,8.43,60.99,36.03,70.52,7.18,2.48,15.96,3.07,23.45,1.96Z"/>
        <path class="cls-4" d="M159.63,55.51c-.59,3.01-1.12,6.03-1.58,9.06-.69.09-.37-.9-.39-1.37-.1-2.37.15-4.56.39-6.9,1-9.47,3.55-20.1,7.81-28.63.48-.95,3.55-5.5,3.52-5.84-.05-.72-2.39-2-1.55-5.17,2.12-8.07,14.22-2.72,9.61,4.47-2.08,3.24-5.03,1.3-6.61,2.45-.34.25-2.1,3.51-2.48,4.22-4.56,8.58-6.87,18.23-8.72,27.72Z"/>
        <path class="cls-6" d="M188.38,57.88c5.73-9.14,14.29-17.5,23.28-23.41.66-.86-.19-2.22-.02-3.53.75-6.04,9.68-6.22,10.54-.33.52,3.59-2.68,7.09-6.33,6.31-1.22-.26-1.92-1.56-3.42-.9s-6.99,5.52-8.5,6.88c-5.08,4.58-9.8,9.97-13.97,15.37-.91,1.17-1.88,2.36-2.76,3.55-.58.42-.71.16-.39-.79.54-1.01.96-2.17,1.58-3.15Z"/>
        <path class="cls-2" d="M187.2,61.82c-.38.51-.84,2.83-1.97,1.97-.18-.14,1.38-2.39,1.58-2.75l.39.79Z"/>
      </g>
    </g>
  </g>
</svg>