<?xml version="1.0" encoding="UTF-8"?>
<svg id="Layer_2" data-name="Layer 2" xmlns="http://www.w3.org/2000/svg" viewBox="0 0 2000.36 475.63">
  <defs>
    <style>
      .cls-1 {
        fill: #f1a666;
      }

      .cls-2 {
        fill: #5d3519;
      }

      .cls-3 {
        fill: #e5e5e5;
      }

      .cls-4 {
        fill: #3b1c09;
      }

      .cls-5 {
        fill: #f1f1f1;
      }

      .cls-6 {
        fill: #3b1d09;
      }

      .cls-7 {
        fill: #3b1c08;
      }
    </style>
  </defs>
  <g id="Layer_1-2" data-name="Layer 1">
    <g>
      <g>
        <path d="M180.52,280.12c0-6.23.8-13.05,2.41-21.89l-12.45-1.61c5.62-37.15,35.75-60.45,78.12-61.45l-1.21,22.09h3.82c7.03,0,14.66-.4,22.09-1.81,2.81,2.41,5.42,9.64,5.42,18.27,0,11.85-6.43,25.91-21.69,25.91h-9.64c-.4,2.81-.6,5.22-.6,7.43,0,9.44,3.82,12.45,12.05,12.45,4.82,0,10.44-1.81,13.86-5.02,4.22,6.43,6.22,13.25,6.22,19.88,0,19.68-17.47,37.15-48.2,37.15s-50.21-16.07-50.21-51.41Z"/>
        <path d="M364.87,288.35c0-7.23.8-15.46,2.61-23.9-1-.6-2.21-1-3.21-1-5.22,0-8.63,4.62-8.63,20.48v46.59h-68.68l2.01-64.26c1.21-39.96-2.21-56.23-5.62-68.08,9.84-7.03,21.89-10.84,37.35-10.84,23.7,0,35.75,10.24,35.75,35.75,0,6.63-.8,14.46-3.61,23.5h4.02c5.82-19.08,21.29-31.53,43.18-31.53,23.9,0,36.55,15.66,34.14,41.17l-1.61,17.27c-.6,5.82,2.41,7.83,6.83,7.83,1.81,0,5.02-.6,7.23-2.01,1.81,5.02,2.61,9.84,2.61,14.46,0,21.89-18.27,39.56-45.18,39.56s-39.16-14.86-39.16-44.98Z"/>
        <path d="M453.64,277.11c0-45.39,38.76-62.25,70.89-62.25,36.15,0,57.03,16.67,57.03,46.99,0,4.22-.6,8.84-1.41,13.86l-59.64,2.01c3.01,7.63,10.04,11.45,22.89,11.45,9.04,0,18.07-1.41,30.12-8.43,3.21,1.21,6.43,8.03,6.43,16.27,0,16.07-11.65,37.96-56.63,37.96-47.79,0-69.68-24.7-69.68-57.84ZM518.5,265.66l15.46-2.21c1.81-7.63.2-18.07-6.02-18.07-4.82,0-9.44,7.63-9.44,19.48v.8Z"/>
        <path d="M627.35,309.04c1.61-5.42,4.82-9.24,8.43-13.05l.8-35.75c.8-33.94-2.61-50.21-6.02-62.05,9.84-7.03,21.89-10.84,37.35-10.84,23.7,0,35.75,10.24,35.75,33.74,0,8.64-1.21,14.86-3.41,24.3h4.02c6.23-22.89,18.68-30.32,34.54-30.32,22.49,0,39.36,20.48,39.36,58.24s-20.08,60.05-47.59,60.05c-15.46,0-26.71-6.02-33.14-15.26h-4.02l-3.41,12.45c-6.43,2.01-14.26,2.81-24.3,2.81-23.7,0-34.34-9.04-38.36-24.3ZM699.44,301.21c8.63-1,13.05-11.25,13.05-21.49s-3.82-16.27-10.64-16.27h-1.41l-1,37.75Z"/>
        <path d="M785.39,277.11c0-45.39,38.76-62.25,70.89-62.25,36.15,0,57.03,16.67,57.03,46.99,0,4.22-.6,8.84-1.41,13.86l-59.64,2.01c3.01,7.63,10.04,11.45,22.89,11.45,9.04,0,18.07-1.41,30.12-8.43,3.21,1.21,6.43,8.03,6.43,16.27,0,16.07-11.65,37.96-56.63,37.96-47.79,0-69.68-24.7-69.68-57.84ZM850.26,265.66l15.46-2.21c1.81-7.63.2-18.07-6.02-18.07-4.82,0-9.44,7.63-9.44,19.48v.8Z"/>
        <path d="M919.74,277.11c0-45.39,38.76-62.25,70.89-62.25,36.15,0,57.03,16.67,57.03,46.99,0,4.22-.6,8.84-1.41,13.86l-59.64,2.01c3.01,7.63,10.04,11.45,22.89,11.45,9.04,0,18.07-1.41,30.12-8.43,3.21,1.21,6.43,8.03,6.43,16.27,0,16.07-11.65,37.96-56.63,37.96-47.8,0-69.68-24.7-69.68-57.84ZM984.6,265.66l15.46-2.21c1.81-7.63.2-18.07-6.02-18.07-4.82,0-9.44,7.63-9.44,19.48v.8Z"/>
        <path d="M1054.09,260.44c10.84-5.82,19.88-19.28,18.68-33.74-10.04-5.62-14.26-19.08-14.26-28.32,0-18.68,12.25-27.51,26.11-27.51,19.68,0,29.32,16.47,29.32,39.76,0,31.73-18.27,54.42-45.18,54.42-5.62,0-10.64-1.2-14.66-4.62Z"/>
        <path d="M1114.73,301.61c0-8.23,2.61-14.66,7.23-19.08,12.85,12.05,34.54,17.07,43.98,17.07,3.21,0,6.02-.6,6.02-2.81,0-1.61-2.41-2.01-7.23-3.21l-18.48-5.02c-21.49-5.82-28.92-18.48-28.92-33.74,0-23.09,19.08-39.76,62.25-39.76,19.08,0,37.35,3.01,49,1.81,3.21,6.02,4.22,14.66,4.22,19.08,0,12.05-5.62,22.29-20.28,22.29-10.24,0-19.88-4.82-31.73-12.25-1.61,1.41-2.01,3.01-2.01,5.02,0,2.81,2.81,5.02,9.04,6.63l18.48,4.82c18.28,4.82,28.72,14.46,28.72,31.73,0,23.9-19.68,39.16-62.05,39.16-38.56,0-58.24-12.25-58.24-31.73Z"/>
        <path d="M1359.73,296.19c0-5.62.6-11.25,2.61-16.67l-10.64,2.81.8,48.2h-68.08l2.01-64.26c1.21-39.96-2.21-56.23-5.62-68.08,9.84-7.03,21.89-10.84,37.35-10.84,34.14,0,40.97,18.68,33.34,76.71h5.62c12.25-10.24,13.66-26.11,8.43-41.57,8.43-5.02,17.67-7.43,30.53-7.43,18.68,0,33.94,8.43,33.94,24.7,0,12.65-8.23,22.49-23.29,27.71-1.61,8.64,4.02,12.25,10.64,12.25,5.82,0,12.45-2.81,15.66-6.63,4.02,7.23,6.02,15.86,6.02,23.7,0,19.88-12.25,36.55-40.57,36.55-22.29,0-38.76-13.05-38.76-37.15Z"/>
        <path d="M1524,288.35c0-7.23.8-15.46,2.61-23.9-1-.6-2.21-1-3.21-1-5.22,0-8.63,4.62-8.63,20.48v46.59h-68.68l2.01-50.41c1-26.11-2.61-42.37-6.02-54.22,9.84-7.03,22.29-10.84,35.34-10.84,22.29,0,35.34,10.44,34.54,31.53h4.02c5.82-19.08,21.29-31.53,43.18-31.53,23.9,0,36.55,15.66,34.14,41.17l-1.61,17.27c-.6,5.82,2.41,7.83,6.83,7.83,1.81,0,5.02-.6,7.23-2.01,1.81,5.02,2.61,9.84,2.61,14.46,0,21.89-18.27,39.56-45.18,39.56s-39.16-14.86-39.16-44.98Z"/>
        <path d="M1612.77,277.11c0-45.39,38.76-62.25,70.89-62.25,36.15,0,57.03,16.67,57.03,46.99,0,4.22-.6,8.84-1.41,13.86l-59.64,2.01c3.01,7.63,10.04,11.45,22.89,11.45,9.04,0,18.07-1.41,30.12-8.43,3.21,1.21,6.43,8.03,6.43,16.27,0,16.07-11.65,37.96-56.63,37.96-47.8,0-69.68-24.7-69.68-57.84ZM1677.64,265.66l15.46-2.21c1.81-7.63.2-18.07-6.02-18.07-4.82,0-9.44,7.63-9.44,19.48v.8Z"/>
        <path d="M1747.12,277.11c0-45.39,38.76-62.25,70.89-62.25,36.15,0,57.03,16.67,57.03,46.99,0,4.22-.6,8.84-1.41,13.86l-59.64,2.01c3.01,7.63,10.04,11.45,22.89,11.45,9.04,0,18.07-1.41,30.12-8.43,3.21,1.21,6.43,8.03,6.43,16.27,0,16.07-11.65,37.96-56.63,37.96-47.8,0-69.69-24.7-69.69-57.84ZM1811.98,265.66l15.46-2.21c1.81-7.63.2-18.07-6.03-18.07-4.82,0-9.44,7.63-9.44,19.48v.8Z"/>
        <path d="M1880.06,301.61c0-8.23,2.61-14.66,7.23-19.08,12.85,12.05,34.54,17.07,43.98,17.07,3.21,0,6.03-.6,6.03-2.81,0-1.61-2.41-2.01-7.23-3.21l-18.47-5.02c-21.49-5.82-28.92-18.48-28.92-33.74,0-23.09,19.08-39.76,62.25-39.76,19.08,0,37.35,3.01,49,1.81,3.21,6.02,4.22,14.66,4.22,19.08,0,12.05-5.62,22.29-20.28,22.29-10.24,0-19.88-4.82-31.73-12.25-1.61,1.41-2.01,3.01-2.01,5.02,0,2.81,2.81,5.02,9.04,6.63l18.48,4.82c18.27,4.82,28.72,14.46,28.72,31.73,0,23.9-19.68,39.16-62.05,39.16-38.56,0-58.24-12.25-58.24-31.73Z"/>
      </g>
      <g>
        <path d="M287.84,438.02c0-6.46,1.42-12.47,4.28-18.03,2.85-5.56,6.78-10.01,11.79-13.33,5-3.32,10.5-4.98,16.49-4.98s11.79,1.59,16.84,4.77c5.05,3.18,9.03,7.56,11.93,13.12,2.9,5.57,4.35,11.81,4.35,18.73v35.93h-9.96v-35.93c0-4.77-1.01-9.19-3.02-13.26-2.01-4.07-4.79-7.32-8.35-9.75-3.56-2.43-7.49-3.65-11.79-3.65s-8.16,1.19-11.58,3.58c-3.42,2.39-6.1,5.59-8.07,9.61-1.96,4.02-2.95,8.42-2.95,13.19v36.21h-9.96v-36.21Z"/>
        <path d="M384.32,470.3c-5.47-3.55-9.78-8.28-12.91-14.17-3.14-5.89-4.7-12.21-4.7-18.95s1.59-12.4,4.77-17.82c3.18-5.42,7.48-9.73,12.91-12.91,5.42-3.18,11.37-4.77,17.82-4.77,8.51,0,15.86,2.48,22.03,7.44,6.17,4.96,10.48,12.07,12.91,21.33h-59.36c-.94,1.96-1.4,4.49-1.4,7.58.19,5.24,1.43,9.96,3.72,14.17,2.29,4.21,5.36,7.51,9.19,9.89,3.83,2.39,8.04,3.58,12.63,3.58,13.85,0,22.27-6.27,25.26-18.8h9.96c-1.5,9.64-5.36,16.84-11.58,21.61-6.22,4.77-14.01,7.16-23.37,7.16-6.46,0-12.42-1.78-17.89-5.33ZM422.14,422.3c-1.96-3.55-4.56-6.22-7.79-8-3.23-1.78-7.28-2.67-12.14-2.67s-8.94.87-12.21,2.6c-3.28,1.73-6.04,4.42-8.28,8.07h40.42Z"/>
        <path d="M468.24,470.44c-5.47-3.46-9.82-8.07-13.05-13.82-3.23-5.75-4.84-11.86-4.84-18.31s1.61-12.37,4.84-18.03c3.23-5.66,7.55-10.17,12.98-13.54,5.42-3.37,11.32-5.05,17.68-5.05s12.42,1.66,17.89,4.98c5.47,3.32,9.82,7.81,13.05,13.47,3.23,5.66,4.84,11.72,4.84,18.17v35.93h-9.96v-11.93c-6.46,8.89-15.06,13.33-25.82,13.33-6.27,0-12.14-1.73-17.61-5.19ZM499.04,462.02c3.93-2.43,7.02-5.75,9.26-9.96,2.25-4.21,3.37-8.79,3.37-13.75s-1.12-9.19-3.37-13.26c-2.25-4.07-5.36-7.32-9.33-9.75-3.98-2.43-8.35-3.65-13.12-3.65s-8.84,1.19-12.77,3.58c-3.93,2.39-7.04,5.64-9.33,9.75-2.29,4.12-3.44,8.56-3.44,13.33s1.17,9.4,3.51,13.61c2.34,4.21,5.47,7.56,9.4,10.03,3.93,2.48,8.14,3.72,12.63,3.72,4.86,0,9.26-1.21,13.19-3.65Z"/>
        <path d="M571.17,474.22c-6.64,0-12.72-1.4-18.24-4.21-5.52-2.81-9.92-6.78-13.19-11.93-3.28-5.14-4.91-11.09-4.91-17.82v-58.66h9.96v40.84h18.24v9.96h-18.24v7.86c0,4.3,1.1,8.28,3.3,11.93,2.2,3.65,5.31,6.57,9.33,8.77,4.02,2.2,8.61,3.3,13.75,3.3v9.96Z"/>
        <path d="M657.61,474.22c-6.64,0-12.72-1.4-18.24-4.21-5.52-2.81-9.92-6.78-13.19-11.93-3.28-5.14-4.91-11.09-4.91-17.82v-58.66h9.96v40.84h18.24v9.96h-18.24v7.86c0,4.3,1.1,8.28,3.3,11.93,2.2,3.65,5.31,6.57,9.33,8.77,4.02,2.2,8.61,3.3,13.75,3.3v9.96Z"/>
        <path d="M670.81,439.56c0-6.83,1.71-13.03,5.12-18.59,3.42-5.56,8.02-9.94,13.82-13.12,5.8-3.18,12.12-4.77,18.95-4.77v9.54c-5.52,0-10.38,1.22-14.59,3.65-4.21,2.43-7.49,5.71-9.82,9.82-2.34,4.12-3.51,8.61-3.51,13.47v34.66h-9.96v-34.66Z"/>
        <path d="M731.08,470.3c-5.47-3.55-9.78-8.28-12.91-14.17-3.13-5.89-4.7-12.21-4.7-18.95s1.59-12.4,4.77-17.82c3.18-5.42,7.48-9.73,12.91-12.91,5.42-3.18,11.37-4.77,17.82-4.77,8.51,0,15.86,2.48,22.03,7.44,6.17,4.96,10.48,12.07,12.91,21.33h-59.36c-.94,1.96-1.4,4.49-1.4,7.58.19,5.24,1.42,9.96,3.72,14.17,2.29,4.21,5.35,7.51,9.19,9.89,3.83,2.39,8.04,3.58,12.63,3.58,13.84,0,22.26-6.27,25.26-18.8h9.96c-1.5,9.64-5.36,16.84-11.58,21.61-6.22,4.77-14.01,7.16-23.37,7.16-6.46,0-12.42-1.78-17.89-5.33ZM768.9,422.3c-1.96-3.55-4.56-6.22-7.79-8-3.23-1.78-7.28-2.67-12.14-2.67s-8.94.87-12.21,2.6c-3.28,1.73-6.03,4.42-8.28,8.07h40.42Z"/>
        <path d="M815,470.44c-5.47-3.46-9.82-8.07-13.05-13.82-3.23-5.75-4.84-11.86-4.84-18.31s1.61-12.37,4.84-18.03c3.23-5.66,7.55-10.17,12.98-13.54,5.42-3.37,11.32-5.05,17.68-5.05s12.42,1.66,17.89,4.98c5.47,3.32,9.82,7.81,13.05,13.47,3.23,5.66,4.84,11.72,4.84,18.17v35.93h-9.96v-11.93c-6.46,8.89-15.06,13.33-25.82,13.33-6.27,0-12.14-1.73-17.61-5.19ZM845.8,462.02c3.93-2.43,7.02-5.75,9.26-9.96,2.25-4.21,3.37-8.79,3.37-13.75s-1.12-9.19-3.37-13.26c-2.25-4.07-5.36-7.32-9.33-9.75-3.98-2.43-8.35-3.65-13.12-3.65s-8.84,1.19-12.77,3.58c-3.93,2.39-7.04,5.64-9.33,9.75-2.29,4.12-3.44,8.56-3.44,13.33s1.17,9.4,3.51,13.61c2.34,4.21,5.47,7.56,9.4,10.03,3.93,2.48,8.14,3.72,12.63,3.72,4.86,0,9.26-1.21,13.19-3.65Z"/>
        <path d="M917.93,474.22c-6.64,0-12.72-1.4-18.24-4.21-5.52-2.81-9.92-6.78-13.19-11.93-3.28-5.14-4.91-11.09-4.91-17.82v-58.66h9.96v40.84h18.24v9.96h-18.24v7.86c0,4.3,1.1,8.28,3.3,11.93,2.2,3.65,5.31,6.57,9.33,8.77,4.02,2.2,8.61,3.3,13.75,3.3v9.96Z"/>
        <path d="M939.97,472.4c-3.65-2.15-6.6-5.07-8.84-8.77-2.25-3.69-3.51-7.79-3.79-12.28h8.98c.37,4.3,2.08,7.88,5.12,10.74,3.04,2.85,6.62,4.28,10.74,4.28,4.58,0,8.42-1.4,11.51-4.21,3.09-2.81,4.63-6.41,4.63-10.81,0-4.96-1.36-8.98-4.07-12.07-2.71-3.09-6.74-4.63-12.07-4.63-2.43,0-4.87-.82-7.3-2.46-2.43-1.64-4.42-3.77-5.96-6.39-1.54-2.62-2.32-5.19-2.32-7.72,0-4.68,1.54-8.58,4.63-11.72,3.09-3.13,6.92-4.7,11.51-4.7s8.47,1.59,11.65,4.77c3.18,3.18,4.77,7.07,4.77,11.65h-9.82c0-2.06-.63-3.72-1.89-4.98-1.26-1.26-2.83-1.89-4.7-1.89-2.06,0-3.72.61-4.98,1.82-1.26,1.22-1.89,2.81-1.89,4.77s.7,3.58,2.11,5.12c1.4,1.54,3.04,2.32,4.91,2.32,7.67,0,13.71,2.32,18.1,6.95,4.4,4.63,6.6,10.92,6.6,18.88,0,4.58-1.1,8.75-3.3,12.49-2.2,3.74-5.22,6.69-9.05,8.84-3.84,2.15-8.19,3.23-13.05,3.23-4.49,0-8.56-1.08-12.21-3.23Z"/>
        <path d="M1045.15,470.79c-5.38-3.23-9.66-7.58-12.84-13.05-3.18-5.47-4.77-11.48-4.77-18.03,0-6.17,1.47-11.93,4.42-17.26,2.95-5.33,7.23-9.82,12.84-13.47-1.31-3.18-1.96-5.94-1.96-8.28,0-3.74.89-7.18,2.67-10.31,1.78-3.13,4.19-5.61,7.23-7.44,3.04-1.82,6.38-2.74,10.03-2.74s7.18.91,10.32,2.74c3.13,1.82,5.59,4.3,7.37,7.44,1.78,3.14,2.67,6.57,2.67,10.31,0,1.4-.19,2.67-.56,3.79l-9.54-.14c.28-1.87.42-3.09.42-3.65,0-3.09-1.01-5.68-3.02-7.79-2.01-2.1-4.56-3.16-7.65-3.16-2.81,0-5.26,1.08-7.37,3.23-2.11,2.15-3.16,4.73-3.16,7.72,0,2.15.61,4.21,1.82,6.17,1.21,1.96,3.18,3.6,5.89,4.91-15.25,5.52-22.87,14.83-22.87,27.93,0,4.68,1.17,9.03,3.51,13.05,2.34,4.02,5.47,7.23,9.4,9.61,3.93,2.39,8.19,3.58,12.77,3.58s9.14-1.17,13.12-3.51c3.97-2.34,7.11-5.5,9.4-9.47,2.29-3.98,3.44-8.4,3.44-13.26,0-.56-.14-2.25-.42-5.05-.56-.19-1.59-.3-3.09-.35-1.5-.05-3.46-.07-5.89-.07-3.37,0-6.13.59-8.28,1.75-2.15,1.17-4.12,3.02-5.89,5.54h-9.96c2.43-4.58,5.07-8.02,7.93-10.31,2.85-2.29,5.94-3.83,9.26-4.63,3.32-.79,7.41-1.19,12.28-1.19,4.4-.47,7.55-1.07,9.47-1.82,1.92-.75,4.09-2.48,6.53-5.19h10.81c-2.9,4.4-5.29,7.49-7.16,9.26-1.87,1.78-4.16,3.23-6.88,4.35.65,2.62.98,5.19.98,7.72,0,6.55-1.59,12.58-4.77,18.1-3.18,5.52-7.51,9.87-12.98,13.05-5.47,3.18-11.44,4.77-17.89,4.77s-12.23-1.61-17.61-4.84Z"/>
        <path d="M1171.51,474.22h-9.96v-92.62h9.96v92.62Z"/>
        <path d="M1202.17,470.44c-5.38-3.46-9.66-8.02-12.84-13.68-3.18-5.66-4.77-11.67-4.77-18.03s1.59-12.54,4.77-18.24c3.18-5.71,7.46-10.27,12.84-13.68,5.38-3.41,11.25-5.12,17.61-5.12s12.26,1.71,17.68,5.12c5.42,3.42,9.73,7.98,12.91,13.68,3.18,5.71,4.77,11.79,4.77,18.24s-1.61,12.54-4.84,18.24c-3.23,5.71-7.56,10.24-12.98,13.61-5.43,3.37-11.27,5.05-17.54,5.05s-12.23-1.73-17.61-5.19ZM1232.42,461.88c3.93-2.53,7.04-5.85,9.33-9.96,2.29-4.12,3.44-8.51,3.44-13.19s-1.15-9.1-3.44-13.26c-2.29-4.16-5.38-7.51-9.26-10.03-3.88-2.53-8.12-3.79-12.7-3.79s-8.82,1.26-12.7,3.79c-3.88,2.53-6.95,5.87-9.19,10.03-2.25,4.16-3.37,8.58-3.37,13.26s1.14,9.36,3.44,13.47c2.29,4.12,5.38,7.39,9.26,9.82,3.88,2.43,8.07,3.65,12.56,3.65s8.7-1.26,12.63-3.79Z"/>
        <path d="M1286.16,470.51c-5.43-3.41-9.75-7.95-12.98-13.61-3.23-5.66-4.84-11.72-4.84-18.17s1.59-12.54,4.77-18.24c3.18-5.71,7.51-10.27,12.98-13.68,5.47-3.41,11.39-5.12,17.75-5.12,9.45,0,17.35,3.04,23.72,9.12l-6.32,6.6c-2.43-2.15-5.05-3.65-7.86-4.49-2.81-.84-5.99-1.26-9.54-1.26-4.68,0-8.96,1.22-12.84,3.65-3.88,2.43-6.97,5.73-9.26,9.89-2.29,4.16-3.44,8.68-3.44,13.54s1.12,9.1,3.37,13.26c2.25,4.16,5.31,7.49,9.19,9.96,3.88,2.48,8.12,3.72,12.7,3.72,7.48,0,13.66-2.1,18.52-6.31l5.75,7.58c-3.74,3.09-7.53,5.31-11.37,6.67-3.84,1.35-8.05,2.03-12.63,2.03-6.36,0-12.26-1.71-17.68-5.12Z"/>
        <path d="M1352.33,470.44c-5.47-3.46-9.82-8.07-13.05-13.82-3.23-5.75-4.84-11.86-4.84-18.31s1.61-12.37,4.84-18.03c3.23-5.66,7.55-10.17,12.98-13.54,5.42-3.37,11.32-5.05,17.68-5.05s12.42,1.66,17.89,4.98c5.47,3.32,9.82,7.81,13.05,13.47,3.23,5.66,4.84,11.72,4.84,18.17v35.93h-9.96v-11.93c-6.46,8.89-15.06,13.33-25.82,13.33-6.27,0-12.14-1.73-17.61-5.19ZM1383.13,462.02c3.93-2.43,7.02-5.75,9.26-9.96s3.37-8.79,3.37-13.75-1.12-9.19-3.37-13.26-5.36-7.32-9.33-9.75c-3.98-2.43-8.35-3.65-13.12-3.65s-8.84,1.19-12.77,3.58c-3.93,2.39-7.04,5.64-9.33,9.75-2.29,4.12-3.44,8.56-3.44,13.33s1.17,9.4,3.51,13.61c2.34,4.21,5.47,7.56,9.4,10.03,3.93,2.48,8.14,3.72,12.63,3.72,4.86,0,9.26-1.21,13.19-3.65Z"/>
        <path d="M1428.88,474.22h-9.96v-92.62h9.96v92.62Z"/>
        <path d="M1491.47,472.4c-3.65-2.15-6.6-5.07-8.84-8.77-2.25-3.69-3.51-7.79-3.79-12.28h8.98c.37,4.3,2.08,7.88,5.12,10.74,3.04,2.85,6.62,4.28,10.74,4.28,4.58,0,8.42-1.4,11.51-4.21,3.09-2.81,4.63-6.41,4.63-10.81,0-4.96-1.36-8.98-4.07-12.07-2.71-3.09-6.74-4.63-12.07-4.63-2.43,0-4.87-.82-7.3-2.46-2.43-1.64-4.42-3.77-5.96-6.39-1.54-2.62-2.32-5.19-2.32-7.72,0-4.68,1.54-8.58,4.63-11.72,3.09-3.13,6.92-4.7,11.51-4.7s8.47,1.59,11.65,4.77c3.18,3.18,4.77,7.07,4.77,11.65h-9.82c0-2.06-.63-3.72-1.89-4.98-1.26-1.26-2.83-1.89-4.7-1.89-2.06,0-3.72.61-4.98,1.82-1.26,1.22-1.89,2.81-1.89,4.77s.7,3.58,2.11,5.12c1.4,1.54,3.04,2.32,4.91,2.32,7.67,0,13.71,2.32,18.1,6.95,4.4,4.63,6.6,10.92,6.6,18.88,0,4.58-1.1,8.75-3.3,12.49-2.2,3.74-5.22,6.69-9.05,8.84-3.84,2.15-8.19,3.23-13.05,3.23-4.49,0-8.56-1.08-12.21-3.23Z"/>
        <path d="M1575.39,456.4l-9.26,17.82-37.05-71.15h10.25l26.8,51.64,4.21-8.14-22.73-43.5h10.25l17.54,33.68,17.54-33.68h10.38l-22.73,43.5,4.07,8.14,26.8-51.64h10.25l-37.05,71.15-9.26-17.82Z"/>
        <path d="M1640.29,470.3c-5.47-3.55-9.78-8.28-12.91-14.17-3.14-5.89-4.7-12.21-4.7-18.95s1.59-12.4,4.77-17.82c3.18-5.42,7.48-9.73,12.91-12.91,5.42-3.18,11.37-4.77,17.82-4.77,8.51,0,15.86,2.48,22.03,7.44,6.17,4.96,10.48,12.07,12.91,21.33h-59.36c-.94,1.96-1.4,4.49-1.4,7.58.19,5.24,1.43,9.96,3.72,14.17,2.29,4.21,5.36,7.51,9.19,9.89,3.83,2.39,8.04,3.58,12.63,3.58,13.85,0,22.27-6.27,25.26-18.8h9.96c-1.5,9.64-5.36,16.84-11.58,21.61-6.22,4.77-14.01,7.16-23.37,7.16-6.46,0-12.42-1.78-17.89-5.33ZM1678.11,422.3c-1.96-3.55-4.56-6.22-7.79-8-3.23-1.78-7.28-2.67-12.14-2.67s-8.94.87-12.21,2.6c-3.28,1.73-6.04,4.42-8.28,8.07h40.42Z"/>
        <path d="M1723.93,470.3c-5.47-3.55-9.78-8.28-12.91-14.17-3.13-5.89-4.7-12.21-4.7-18.95s1.59-12.4,4.77-17.82c3.18-5.42,7.48-9.73,12.91-12.91,5.42-3.18,11.37-4.77,17.82-4.77,8.51,0,15.86,2.48,22.03,7.44,6.17,4.96,10.48,12.07,12.91,21.33h-59.36c-.94,1.96-1.4,4.49-1.4,7.58.19,5.24,1.42,9.96,3.72,14.17,2.29,4.21,5.35,7.51,9.19,9.89,3.83,2.39,8.04,3.58,12.63,3.58,13.84,0,22.26-6.27,25.26-18.8h9.96c-1.5,9.64-5.36,16.84-11.58,21.61-6.22,4.77-14.01,7.16-23.37,7.16-6.46,0-12.42-1.78-17.89-5.33ZM1761.75,422.3c-1.96-3.55-4.56-6.22-7.79-8-3.23-1.78-7.28-2.67-12.14-2.67s-8.94.87-12.21,2.6c-3.28,1.73-6.03,4.42-8.28,8.07h40.42Z"/>
        <path d="M1826.31,474.22c-6.64,0-12.72-1.4-18.24-4.21-5.52-2.81-9.92-6.78-13.19-11.93-3.28-5.14-4.91-11.09-4.91-17.82v-58.66h9.96v40.84h18.24v9.96h-18.24v7.86c0,4.3,1.1,8.28,3.3,11.93,2.2,3.65,5.31,6.57,9.33,8.77,4.02,2.2,8.61,3.3,13.75,3.3v9.96Z"/>
        <path d="M1848.34,472.4c-3.65-2.15-6.6-5.07-8.84-8.77-2.25-3.69-3.51-7.79-3.79-12.28h8.98c.37,4.3,2.08,7.88,5.12,10.74,3.04,2.85,6.62,4.28,10.74,4.28,4.58,0,8.42-1.4,11.51-4.21,3.09-2.81,4.63-6.41,4.63-10.81,0-4.96-1.36-8.98-4.07-12.07-2.71-3.09-6.74-4.63-12.07-4.63-2.43,0-4.87-.82-7.3-2.46-2.43-1.64-4.42-3.77-5.96-6.39-1.54-2.62-2.32-5.19-2.32-7.72,0-4.68,1.54-8.58,4.63-11.72,3.09-3.13,6.92-4.7,11.51-4.7s8.47,1.59,11.65,4.77c3.18,3.18,4.77,7.07,4.77,11.65h-9.82c0-2.06-.63-3.72-1.89-4.98-1.26-1.26-2.83-1.89-4.7-1.89-2.06,0-3.72.61-4.98,1.82-1.26,1.22-1.89,2.81-1.89,4.77s.7,3.58,2.11,5.12c1.4,1.54,3.04,2.32,4.91,2.32,7.67,0,13.71,2.32,18.1,6.95,4.4,4.63,6.6,10.92,6.6,18.88,0,4.58-1.1,8.75-3.3,12.49-2.2,3.74-5.22,6.69-9.05,8.84-3.84,2.15-8.19,3.23-13.05,3.23-4.49,0-8.56-1.08-12.21-3.23Z"/>
      </g>
      <g>
        <path class="cls-5" d="M46.58,14.15c28.7,4.02,58.49,27.87,68.05,55.41,1.59,4.58,3.39,10.45,2.06,15.1l.79,1.29c-.32,6.28-1.44,12.9-3.94,18.62-.46,1.05-1.99,3.73-3.16,3.33-1.11,3.55-5.54,6.23-8.74,8.06-1.14.65-2.3,1.24-3.5,1.77-.33-.42-.71-.58-1.15-.37l-.88,1.18c-5.62,2.15-11.63,2.57-17.58,2.72l-1.24-.75c-.92-.26-1.52-.06-1.78.58l-10.74-1.3-.48-.85C34.55,111.4-1.92,79.53.08,46.24,1.54,21.79,23.79,11.57,45.89,14.95c.31-.05.47-.56.68-.8Z"/>
        <path class="cls-1" d="M188.38,57.88c.7.96-.65,2.84-1.58,3.15-.73,2.3-.76,2.58-.09.85l.48-.07c.25-1.53,1.16-3.21,2.76-3.55,6.92,4.51,12.68,9.52,17.1,16.58,4.18,6.66,6.61,14.24,10.4,21.11,7.65,13.85,19.77,25.51,12.58,43.17-5.49,13.47-16.88,13.47-28.36,17.72-2.17.8-3.45.97-4.63,3.05-.78-.37-.91-.43-.4-.17-49.02,31.71-78.48-46.46-62.47-82.83,1.31-2.35,2.31-4.75,2.99-7.21,3.28-1.06,3.31-2.81,5.5-4.94,3.98-3.87,9.99-7.18,15.38-8.45l.47.59c-.34,1.72.03,1.26,1.11-1.38,9.88-1.94,19.57-2.46,28.76,2.36Z"/>
        <path class="cls-1" d="M77.3,120.51c-.29,1.38.28,2.96,1.69,4.73l2.98,4.64c14.07,17.15,21.39,37.66,28.21,58.2,3.39,8.53,8.42,17.44,17.5,20.74l.82,1.1c-21.25,18.06-49.59.79-62.95-18.39-11.62-16.67-17.6-39.83-9.83-59.31,2-5.02,5.12-9.21,8.57-13.29l13,1.58Z"/>
        <path class="cls-7" d="M137.17,69.69c.68.03,1.57-.36.99.79-4.58,9.12-7.06,14.35-7.68,25.01-1.71,29.33,17.48,82.57,55.63,68.63,3.5-1.28,6.54-3.36,9.86-4.71.75-.31,1.21-.75,1.07.48-.7,1.23-1.12,2.85-1.9,4.2-4.79,8.26-15.91,14.89-25.28,16.28-.2.23-.42.45-.66.62-2.24,1.59-13.89.37-17.11-.26-31.58-6.22-42.88-42.27-42.55-70.66l.84-2.18c.87-1.06,3.16-4.56,3.46-5.8,1.49-6.1,2.98-10.94,2.84-17.44,1.47-6.46,11.95-14.32,18.25-15.33.51-.08,1,.15,1.45.36.22-.07.58.07.79,0Z"/>
        <path class="cls-3" d="M136.39,69.69c-8.91,2.75-14.83,6.91-19.7,14.97-.69-31.97-38.42-66.16-69.14-69.34-1.17-.12-1.04.29-.97-1.17,1.35-1.5,2.43-3.71,3.93-5.33,13.38-14.43,35.38-8.88,50,.44,19.93,12.69,35.31,36.41,35.88,60.43Z"/>
        <path class="cls-7" d="M97,117.36l1.44-.14c1.05,18.31,7.38,36.87,18.02,51.98,9.16,13,25.08,26.49,41.88,21.47l1.28.35c-3.16,14-16.95,23.23-31.12,18.91-16.43-5.01-20.5-26.72-25.7-40.67-3.4-9.14-7.16-17.59-12.34-25.87-4.79-7.65-11.01-14.41-14.73-22.69.24-.39,1.12-.18,1.57-.19,7.36-.26,12.71-.35,19.7-3.15Z"/>
        <path class="cls-1" d="M169.87,180.38c-1.79,4.52-5.72,8.78-10.24,10.64-11.52,4.73-24.45-1.7-33.09-9.25-16.29-14.24-27.75-41.62-28.75-63.05-.04-.76.41-1.58-.79-1.36,4.68-1.87,10.17-5.53,13.39-9.45-.88,26.32,8.43,60.99,36.03,70.52,7.18,2.48,15.96,3.07,23.45,1.96Z"/>
        <path class="cls-4" d="M159.63,55.51c-.59,3.01-1.12,6.03-1.58,9.06-.69.09-.37-.9-.39-1.37-.1-2.37.15-4.56.39-6.9,1-9.47,3.55-20.1,7.81-28.63.48-.95,3.55-5.5,3.52-5.84-.05-.72-2.39-2-1.55-5.17,2.12-8.07,14.22-2.72,9.61,4.47-2.08,3.24-5.03,1.3-6.61,2.45-.34.25-2.1,3.51-2.48,4.22-4.56,8.58-6.87,18.23-8.72,27.72Z"/>
        <path class="cls-6" d="M188.38,57.88c5.73-9.14,14.29-17.5,23.28-23.41.66-.86-.19-2.22-.02-3.53.75-6.04,9.68-6.22,10.54-.33.52,3.59-2.68,7.09-6.33,6.31-1.22-.26-1.92-1.56-3.42-.9s-6.99,5.52-8.5,6.88c-5.08,4.58-9.8,9.97-13.97,15.37-.91,1.17-1.88,2.36-2.76,3.55-.58.42-.71.16-.39-.79.54-1.01.96-2.17,1.58-3.15Z"/>
        <path class="cls-2" d="M187.2,61.82c-.38.51-.84,2.83-1.97,1.97-.18-.14,1.38-2.39,1.58-2.75l.39.79Z"/>
      </g>
    </g>
  </g>
</svg>