<?xml version="1.0" encoding="UTF-8"?>
<svg id="Layer_2" data-name="Layer 2" xmlns="http://www.w3.org/2000/svg" viewBox="0 0 735.66 689.09">
  <defs>
    <style>
      .cls-1 {
        fill: #f1a666;
      }

      .cls-2 {
        fill: #5d3519;
      }

      .cls-3 {
        fill: #e5e5e5;
      }

      .cls-4 {
        fill: #3b1c09;
      }

      .cls-5 {
        fill: #f1f1f1;
      }

      .cls-6 {
        fill: #3b1d09;
      }

      .cls-7 {
        fill: #3b1c08;
      }
    </style>
  </defs>
  <g id="Layer_1-2" data-name="Layer 1">
    <g>
      <path class="cls-5" d="M147.54,44.83c90.9,12.74,185.28,88.28,215.57,175.51,5.03,14.49,10.74,33.12,6.53,47.84l2.52,4.08c-1,19.9-4.56,40.87-12.48,58.98-1.45,3.32-6.3,11.81-10,10.56-3.51,11.24-17.53,19.74-27.69,25.53-3.61,2.06-7.3,3.93-11.1,5.6-1.04-1.33-2.24-1.83-3.64-1.18l-2.78,3.74c-17.81,6.8-36.83,8.15-55.69,8.6l-3.91-2.36c-2.93-.82-4.81-.21-5.63,1.83-11.33-1.37-22.67-2.75-34.03-4.12l-1.52-2.7C109.44,352.89-6.07,251.92.25,146.47,4.89,69.02,75.36,36.66,145.37,47.36c.99-.16,1.5-1.79,2.17-2.53Z"/>
      <path class="cls-1" d="M596.73,183.33c2.23,3.03-2.06,9-4.99,9.98-2.31,7.27-2.4,8.17-.27,2.71l1.52-.21c.8-4.85,3.66-10.18,8.73-11.23,21.92,14.3,40.15,30.15,54.17,52.51,13.23,21.11,20.95,45.12,32.96,66.86,24.24,43.88,62.64,80.82,39.85,136.74-17.39,42.68-53.48,42.68-89.85,56.14-6.88,2.55-10.93,3.08-14.67,9.66-2.46-1.18-2.88-1.36-1.27-.52-155.27,100.44-248.61-147.16-197.87-262.38,4.14-7.44,7.3-15.05,9.48-22.83,10.4-3.37,10.48-8.9,17.42-15.65,12.59-12.26,31.63-22.76,48.71-26.78l1.48,1.87c-1.07,5.45.1,3.99,3.52-4.37,31.31-6.15,61.99-7.79,91.09,7.49Z"/>
      <path class="cls-1" d="M244.86,381.73c-.91,4.38.87,9.37,5.36,14.99l9.45,14.68c44.56,54.31,67.75,119.3,89.37,184.37,10.73,27.03,26.66,55.24,55.44,65.7l2.6,3.5c-67.32,57.2-157.08,2.49-199.41-58.25-36.8-52.8-55.75-126.16-31.13-187.88,6.35-15.91,16.21-29.16,27.15-42.1l41.18,4.99Z"/>
      <path class="cls-7" d="M434.52,220.77c2.17.09,4.96-1.14,3.13,2.51-14.5,28.89-22.36,45.46-24.33,79.24-5.41,92.92,55.37,261.56,176.23,217.41,11.09-4.05,20.72-10.63,31.24-14.93,2.38-.97,3.82-2.39,3.39,1.52-2.21,3.89-3.55,9.04-6.02,13.32-15.16,26.17-50.39,47.16-80.07,51.57-.65.73-1.33,1.42-2.1,1.97-7.11,5.05-44.01,1.18-54.19-.82-100.05-19.7-135.84-133.88-134.77-223.83l2.65-6.91c2.76-3.37,10-14.45,10.95-18.37,4.7-19.33,9.45-34.65,9.01-55.25,4.66-20.46,37.86-45.35,57.81-48.57,1.6-.26,3.18.47,4.58,1.15.68-.21,1.83.22,2.5,0Z"/>
      <path class="cls-3" d="M432.03,220.77c-28.24,8.7-46.96,21.9-62.39,47.41-2.18-101.26-121.69-209.59-219.01-219.63-3.72-.38-3.29.91-3.09-3.72,4.26-4.75,7.69-11.75,12.44-16.88,42.39-45.72,112.07-28.12,158.39,1.39,63.12,40.21,111.86,115.35,113.65,191.43Z"/>
      <path class="cls-7" d="M307.25,371.75l4.57-.44c3.32,58.01,23.36,116.8,57.09,164.65,29.02,41.17,79.45,83.91,132.67,68l4.06,1.12c-10.01,44.35-53.7,73.58-98.57,59.89-52.04-15.88-64.95-84.64-81.42-128.83-10.78-28.94-22.68-55.73-39.1-81.93-15.18-24.23-34.87-45.65-46.67-71.87.76-1.22,3.54-.56,4.98-.61,23.3-.82,40.27-1.12,62.39-9.98Z"/>
      <path class="cls-1" d="M538.09,571.39c-5.66,14.33-18.13,27.81-32.44,33.69-36.49,14.99-77.46-5.37-104.83-29.3-51.59-45.12-87.92-131.85-91.06-199.72-.11-2.4,1.28-5-2.5-4.31,14.82-5.93,32.23-17.53,42.42-29.95-2.78,83.38,26.72,193.18,114.13,223.39,22.76,7.87,50.57,9.71,74.29,6.19Z"/>
      <path class="cls-4" d="M505.64,175.85c-1.85,9.53-3.54,19.09-5.01,28.69-2.17.29-1.17-2.84-1.23-4.35-.3-7.51.47-14.46,1.25-21.85,3.16-29.98,11.23-63.68,24.73-90.69,1.51-3.01,11.23-17.43,11.15-18.51-.17-2.29-7.56-6.32-4.91-16.37,6.72-25.55,45.04-8.6,30.44,14.16-6.58,10.26-15.95,4.13-20.95,7.75-1.09.79-6.64,11.11-7.84,13.37-14.44,27.19-21.77,57.74-27.62,87.8Z"/>
      <path class="cls-6" d="M596.73,183.33c18.15-28.95,45.27-55.43,73.74-74.17,2.09-2.73-.6-7.02-.08-11.19,2.38-19.13,30.66-19.7,33.37-1.03,1.65,11.38-8.49,22.46-20.04,19.99-3.86-.82-6.08-4.95-10.82-2.84-4.57,2.04-22.13,17.47-26.92,21.79-16.08,14.52-31.04,31.57-44.26,48.7-2.87,3.72-5.95,7.46-8.73,11.23-1.84,1.33-2.25.5-1.25-2.5,1.72-3.2,3.05-6.88,4.99-9.98Z"/>
      <path class="cls-2" d="M592.99,195.81c-1.19,1.61-2.67,8.96-6.24,6.23-.57-.43,4.36-7.56,4.99-8.72l1.25,2.5Z"/>
    </g>
  </g>
</svg>